<svg xmlns="http://www.w3.org/2000/svg" viewBox="0 0 200 60" fill="none">
  <!-- Academic shield crest -->
  <path d="M9,6 L27,6 L27,28 Q27,40 18,44 Q9,40 9,28 Z" fill="none" stroke="#000" stroke-width="2"/>
  <!-- Open book in shield -->
  <line x1="18" y1="13" x2="18" y2="35" stroke="#000" stroke-width="1.2"/>
  <path d="M10,16 Q14,14 18,16" fill="none" stroke="#000" stroke-width="1"/>
  <path d="M18,16 Q22,14 26,16" fill="none" stroke="#000" stroke-width="1"/>
  <path d="M10,22 Q14,20 18,22" fill="none" stroke="#000" stroke-width="1"/>
  <path d="M18,22 Q22,20 26,22" fill="none" stroke="#000" stroke-width="1"/>
  <path d="M10,28 Q14,26 18,28" fill="none" stroke="#000" stroke-width="1"/>
  <path d="M18,28 Q22,26 26,28" fill="none" stroke="#000" stroke-width="1"/>
  <!-- SNU monogram -->
  <text x="34" y="26" font-family="Georgia, serif" font-size="21" font-weight="700" letter-spacing="2" fill="#000">SNU</text>
  <!-- Full name -->
  <text x="34" y="38" font-family="Arial, sans-serif" font-size="6" fill="#000" letter-spacing="0.3">SISTER NIVEDITA UNIVERSITY</text>
  <!-- Location -->
  <text x="34" y="49" font-family="Arial, sans-serif" font-size="5.5" fill="#000" letter-spacing="0.8">KOLKATA, INDIA</text>
</svg>
